<?xml version="1.0" standalone="no"?>
<!DOCTYPE svg PUBLIC "-//W3C//DTD SVG 20010904//EN"
 "http://www.w3.org/TR/2001/REC-SVG-20010904/DTD/svg10.dtd">
<svg version="1.0" xmlns="http://www.w3.org/2000/svg"
 width="200.000000pt" height="200.000000pt" viewBox="0 0 200.000000 200.000000"
 preserveAspectRatio="xMidYMid meet">
<metadata>
Created by potrace 1.14, written by Peter Selinger 2001-2017
</metadata>
<g transform="translate(0.000000,200.000000) scale(0.100000,-0.100000)"
fill="#000000" stroke="none">
<path d="M873 1656 c-110 -50 -187 -215 -147 -315 l16 -40 -55 -68 c-90 -112
-187 -286 -211 -381 -17 -65 -10 -142 18 -205 26 -58 55 -93 110 -126 39 -24
39 -45 1 -47 -60 -4 -115 -77 -115 -152 0 -30 26 -79 48 -91 15 -8 17 -21 15
-78 -1 -37 -9 -87 -17 -110 l-15 -43 438 0 439 0 -2 30 c-1 17 1 36 6 43 5 8
8 6 8 -8 0 -11 7 -31 16 -43 13 -19 24 -22 90 -22 42 0 74 3 72 8 -2 4 -15 30
-30 59 -15 28 -35 78 -44 110 l-16 60 25 25 c50 50 53 137 5 197 -28 37 -84
72 -118 74 -35 2 -37 8 -11 31 31 28 63 116 68 181 7 122 -35 253 -127 391
-71 107 -201 227 -267 248 -19 6 -20 9 -8 32 17 33 11 143 -9 183 -9 17 -28
38 -42 47 -34 23 -102 27 -141 10z"/>
</g>
</svg>
